# xmcd
#
# Track frame offsets:
#	150
#	12303
#	27875
#	41192
#	52905
#	63626
#	75593
#	87692
#	99933
#	111486
#	123253
#	134658
#	149358
#	161454
#	173789
#	186256
#	198648
#	212802
#	225262
#	235981
#
# Disc length: 3319 seconds
#
# Revision: 0
# Processed by: cddbd v1.5.2PL0 Copyright (c) Steve Scherf et al.
# Submitted via: EasyCDDAExtractor 10.0.5.1
#
DISCID=1c0cf514
DTITLE=Tohama - La Petite Marie
DYEAR=1900
DGENRE=Rétro
TTITLE0=La Petite Marie
TTITLE1=Incertitude
TTITLE2=Coquin Taquin
TTITLE3=Demain
TTITLE4=Ca Tourne
TTITLE5=Près De Toi
TTITLE6=C'est Un Caboulot
TTITLE7=Griffonage
TTITLE8=Dis-Moi Que Tu M'aimes
TTITLE9=Moineau De Paris
TTITLE10=Ma Petite Folie
TTITLE11=Près Du Ciel
TTITLE12=Donne, Donne-Moi Tes Lèvres
TTITLE13=Marie S'promène
TTITLE14=Je-Te-Le-Le
TTITLE15=Mambo Oh! Oh!
TTITLE16=Ma Petite Rime
TTITLE17=Tant Pis Pour Toi
TTITLE18=Un Homme Est Un Homme
TTITLE19=Rose-Marie Polka
EXTD=
EXTT0=
EXTT1=
EXTT2=
EXTT3=
EXTT4=
EXTT5=
EXTT6=
EXTT7=
EXTT8=
EXTT9=
EXTT10=
EXTT11=
EXTT12=
EXTT13=
EXTT14=
EXTT15=
EXTT16=
EXTT17=
EXTT18=
EXTT19=
PLAYORDER=
